<svg width="581" height="215" viewBox="0 0 581 215" fill="none" xmlns="http://www.w3.org/2000/svg">
<circle cx="355" cy="19" r="19" fill="#F65A11"/>
<path d="M110.8 104.2C110.8 108.2 110.533 111.8 110 115H29C29.6666 123 32.4666 129.267 37.4 133.8C42.3333 138.333 48.4 140.6 55.6 140.6C66 140.6 73.4 136.133 77.8 127.2H108C104.8 137.867 98.6666 146.667 89.6 153.6C80.5333 160.4 69.4 163.8 56.2 163.8C45.5333 163.8 35.9333 161.467 27.4 156.8C19 152 12.4 145.267 7.59998 136.6C2.93331 127.933 0.599976 117.933 0.599976 106.6C0.599976 95.1334 2.93331 85.0667 7.59998 76.4001C12.2666 67.7334 18.8 61.0667 27.2 56.4001C35.6 51.7334 45.2666 49.4001 56.2 49.4001C66.7333 49.4001 76.1333 51.6667 84.4 56.2001C92.8 60.7334 99.2666 67.2001 103.8 75.6001C108.467 83.8667 110.8 93.4001 110.8 104.2ZM81.8 96.2001C81.6666 89.0001 79.0666 83.2667 74 79.0001C68.9333 74.6001 62.7333 72.4001 55.4 72.4001C48.4666 72.4001 42.6 74.5334 37.8 78.8001C33.1333 82.9334 30.2666 88.7334 29.2 96.2001H81.8Z" fill="#EFEDE7"/>
<path d="M268.837 49.6001C282.437 49.6001 293.371 53.8001 301.637 62.2001C310.037 70.4667 314.237 82.0667 314.237 97.0001V162H286.237V100.8C286.237 92.1334 284.037 85.5334 279.637 81.0001C275.237 76.3334 269.237 74.0001 261.637 74.0001C254.037 74.0001 247.971 76.3334 243.437 81.0001C239.037 85.5334 236.837 92.1334 236.837 100.8V162H208.837V100.8C208.837 92.1334 206.637 85.5334 202.237 81.0001C197.837 76.3334 191.837 74.0001 184.237 74.0001C176.504 74.0001 170.371 76.3334 165.837 81.0001C161.437 85.5334 159.237 92.1334 159.237 100.8V162H131.237V51.2001H159.237V64.6001C162.837 59.9334 167.437 56.2667 173.037 53.6C178.771 50.9334 185.037 49.6001 191.837 49.6001C200.504 49.6001 208.237 51.4667 215.037 55.2001C221.837 58.8001 227.104 64 230.837 70.8C234.437 64.4001 239.637 59.2667 246.437 55.4C253.371 51.5334 260.837 49.6001 268.837 49.6001Z" fill="#EFEDE7"/>
<path d="M368.808 51.2001V162H340.808V51.2001H368.808Z" fill="#EFEDE7"/>
<path d="M429.072 74.2001V127.8C429.072 131.533 429.939 134.267 431.672 136C433.539 137.6 436.605 138.4 440.872 138.4H453.872V162H436.272C412.672 162 400.872 150.533 400.872 127.6V74.2001H387.672V51.2001H400.872V23.8H429.072V51.2001H453.872V74.2001H429.072Z" fill="#EFEDE7"/>
<path d="M580.011 51.2001L511.411 214.4H481.611L505.611 159.2L461.211 51.2001H492.611L521.211 128.6L550.211 51.2001H580.011Z" fill="#EFEDE7"/>
</svg>
