<svg width="581" height="203" viewBox="0 0 581 203" fill="none" xmlns="http://www.w3.org/2000/svg">
<circle cx="355" cy="16" r="16" fill="#F65A11"/>
<path d="M110.8 92.2001C110.8 96.2001 110.533 99.8001 110 103H29C29.6666 111 32.4666 117.267 37.4 121.8C42.3333 126.333 48.4 128.6 55.6 128.6C66 128.6 73.4 124.133 77.8 115.2H108C104.8 125.867 98.6666 134.667 89.6 141.6C80.5333 148.4 69.4 151.8 56.2 151.8C45.5333 151.8 35.9333 149.467 27.4 144.8C19 140 12.4 133.267 7.59998 124.6C2.93331 115.933 0.599976 105.933 0.599976 94.6001C0.599976 83.1334 2.93331 73.0667 7.59998 64.4001C12.2666 55.7334 18.8 49.0667 27.2 44.4001C35.6 39.7334 45.2666 37.4001 56.2 37.4001C66.7333 37.4001 76.1333 39.6667 84.4 44.2001C92.8 48.7334 99.2666 55.2001 103.8 63.6001C108.467 71.8667 110.8 81.4001 110.8 92.2001ZM81.8 84.2001C81.6666 77.0001 79.0666 71.2667 74 67.0001C68.9333 62.6001 62.7333 60.4001 55.4 60.4001C48.4666 60.4001 42.6 62.5334 37.8 66.8001C33.1333 70.9334 30.2666 76.7334 29.2 84.2001H81.8Z" fill="#EFEDE7"/>
<path d="M268.837 37.6001C282.437 37.6001 293.371 41.8001 301.637 50.2001C310.037 58.4667 314.237 70.0667 314.237 85.0001V150H286.237V88.8001C286.237 80.1334 284.037 73.5334 279.637 69.0001C275.237 64.3334 269.237 62.0001 261.637 62.0001C254.037 62.0001 247.971 64.3334 243.437 69.0001C239.037 73.5334 236.837 80.1334 236.837 88.8001V150H208.837V88.8001C208.837 80.1334 206.637 73.5334 202.237 69.0001C197.837 64.3334 191.837 62.0001 184.237 62.0001C176.504 62.0001 170.371 64.3334 165.837 69.0001C161.437 73.5334 159.237 80.1334 159.237 88.8001V150H131.237V39.2001H159.237V52.6001C162.837 47.9334 167.437 44.2667 173.037 41.6C178.771 38.9334 185.037 37.6001 191.837 37.6001C200.504 37.6001 208.237 39.4667 215.037 43.2001C221.837 46.8001 227.104 52 230.837 58.8C234.437 52.4001 239.637 47.2667 246.437 43.4C253.371 39.5334 260.837 37.6001 268.837 37.6001Z" fill="#EFEDE7"/>
<path d="M368.808 39.2001V150H340.808V39.2001H368.808Z" fill="#EFEDE7"/>
<path d="M429.072 62.2001V115.8C429.072 119.533 429.939 122.267 431.672 124C433.539 125.6 436.605 126.4 440.872 126.4H453.872V150H436.272C412.672 150 400.872 138.533 400.872 115.6V62.2001H387.672V39.2001H400.872V11.8H429.072V39.2001H453.872V62.2001H429.072Z" fill="#EFEDE7"/>
<path d="M580.011 39.2001L511.411 202.4H481.611L505.611 147.2L461.211 39.2001H492.611L521.211 116.6L550.211 39.2001H580.011Z" fill="#EFEDE7"/>
</svg>
